<svg width="502" height="502" viewBox="0 0 502 502" fill="none" xmlns="http://www.w3.org/2000/svg">
<path d="M243.811 472.001C243.811 488.57 230.38 502.001 213.811 502.001H165.792V423.982H243.811V472.001Z" fill="#2B2B2B"/>
<rect x="243.811" y="419.106" width="78.0192" height="78.0192" transform="rotate(180 243.811 419.106)" fill="#2B2B2B"/>
<path d="M243.811 336.21H165.792V258.191H213.811C230.38 258.191 243.811 271.623 243.811 288.191V336.21Z" fill="#2B2B2B"/>
<rect x="160.914" y="336.21" width="78.0192" height="78.0192" transform="rotate(180 160.914 336.21)" fill="#2B2B2B"/>
<path d="M78.0193 336.21H0.00012207V288.191C0.00012207 271.623 13.4316 258.191 30.0001 258.191H78.0193V336.21Z" fill="#2B2B2B"/>
<rect x="160.914" y="419.106" width="78.0192" height="78.0192" transform="rotate(180 160.914 419.106)" fill="#2B2B2B"/>
<rect x="258.19" y="258.192" width="243.81" height="243.81" rx="30" fill="#2B2B2B"/>
<rect x="258.19" width="243.81" height="243.81" rx="30" fill="#2B2B2B"/>
<rect width="243.81" height="243.81" rx="30" fill="#2B2B2B"/>
</svg>
